# xmcd CD database file
#
# Track frame offsets:
#	150
#	31592
#	48352
#	69380
#	82597
#	86705
#	103182
#	118690
#	139310
#	159897
#
# Disc length: 2303 seconds
#
# Revision: 0
# Processed by: cddbd v1.5.1PL2 Copyright (c) Steve Scherf et al.
# Submitted via: CDex 1.51
#
DISCID=7308fd0a
DTITLE=フォークロア - very far
DYEAR=1999
DGENRE=JPop
TTITLE0=period
TTITLE1=open mind
TTITLE2=d.s
TTITLE3=very far
TTITLE4=close my eyes
TTITLE5=on the beach
TTITLE6=mademoiselle
TTITLE7=new me
TTITLE8=in the world
TTITLE9=all good things
EXTD=YEAR: 1999
EXTT0=
EXTT1=
EXTT2=
EXTT3=
EXTT4=
EXTT5=
EXTT6=
EXTT7=
EXTT8=
EXTT9=
PLAYORDER=
